<svg xmlns="http://www.w3.org/2000/svg" xmlns:xlink="http://www.w3.org/1999/xlink" width="39px" height="37px" viewBox="0 0 39 37" version="1.1"><script xmlns=""/>
    <title>1077C894-337E-4E10-894C-4256911B4B43</title>
    <g id="Page-1" stroke="none" stroke-width="1" fill="none" fill-rule="evenodd">
        <g id="Translink.Riders.Homepage.Rev" transform="translate(-301.000000, -746.000000)">
            <g id="Quick-Links-Main---Tiles" transform="translate(24.000000, 729.000000)">
                <g id="Buttons/Icon-lg-Copy-4" transform="translate(203.189806, 0.000000)">
                    <g id="Icons/ico-money" transform="translate(74.548544, 17.000000)">
                        <circle id="Oval" fill="#005DAA" cx="19" cy="19" r="18"/>
                        <path d="M25.3181818,8 C23.0272727,8 21.0036364,9.155 19.8009091,10.9113636 C19.8104545,10.9018182 19.8104545,10.8922727 19.82,10.8827273 C19.4381818,10.8636364 19.0372727,10.8636364 18.6363636,10.8636364 C14.4172727,10.8636364 11,11.3409091 11,14.6818182 L11,24.2272727 C11,25.0672727 11.3722727,25.8213636 11.9545455,26.3463636 L11.9545455,28.0454545 C11.9545455,28.5704545 12.3840909,29 12.9090909,29 L13.8636364,29 C14.3886364,29 14.8181818,28.5704545 14.8181818,28.0454545 L14.8181818,27.0909091 L22.4545455,27.0909091 L22.4545455,28.0454545 C22.4545455,28.5704545 22.8840909,29 23.4090909,29 L24.3636364,29 C24.8886364,29 25.3181818,28.5704545 25.3181818,28.0454545 L25.3181818,26.3463636 C25.9004545,25.8213636 26.2727273,25.0672727 26.2727273,24.2272727 L26.2727273,21.2872727 C29.5086364,20.8195455 32,18.0513636 32,14.6818182 C32,10.9877273 29.0122727,8 25.3181818,8 Z M14.3409091,25.1818182 C13.5486364,25.1818182 12.9090909,24.5422727 12.9090909,23.75 C12.9090909,22.9577273 13.5486364,22.3181818 14.3409091,22.3181818 C15.1331818,22.3181818 15.7727273,22.9577273 15.7727273,23.75 C15.7727273,24.5422727 15.1331818,25.1818182 14.3409091,25.1818182 Z M12.9090909,19.4545455 L12.9090909,14.6818182 L18.6363636,14.6818182 C18.6363636,16.5527273 19.4095455,18.2422727 20.6504545,19.4545455 L12.9090909,19.4545455 Z M22.9318182,25.1818182 C22.1395455,25.1818182 21.5,24.5422727 21.5,23.75 C21.5,22.9577273 22.1395455,22.3181818 22.9318182,22.3181818 C23.7240909,22.3181818 24.3636364,22.9577273 24.3636364,23.75 C24.3636364,24.5422727 23.7240909,25.1818182 22.9318182,25.1818182 Z M25.3181818,19.4545455 C22.6836364,19.4545455 20.5454545,17.3163636 20.5454545,14.6818182 C20.5454545,12.0472727 22.6836364,9.90909091 25.3181818,9.90909091 C27.9527273,9.90909091 30.0909091,12.0472727 30.0909091,14.6818182 C30.0909091,17.3163636 27.9527273,19.4545455 25.3181818,19.4545455 Z M25.7954545,10.8636364 L24.3636364,10.8636364 L24.3636364,15.6363636 L27.8190909,17.6981818 L28.535,16.5240909 L25.7954545,14.9204545 L25.7954545,10.8636364 Z" id="Shape" fill="#FFFFFF" fill-rule="nonzero"/>
                    </g>
                </g>
            </g>
        </g>
    </g>
</svg>