<svg width="50" height="58" viewBox="0 0 50 58" fill="none" xmlns="http://www.w3.org/2000/svg">
<circle cx="25" cy="29" r="24" fill="#030303"/>
<path d="M26.2497 2L1.25 16.4336M48.7487 16.433L23.75 2M47.5 43.1339V14.2679M23.7503 55.4018L48.75 40.9683M1.25132 40.9688L26.25 55.4018M2.5 14.2679V43.1339" stroke="black" stroke-width="4"/>
<path d="M22.9943 30.5622H26.4034L27.8523 32.4116L29.7528 34.5935L32.6761 38.1986H28.858L26.8125 35.7525L25.6023 34.0139L22.9943 30.5622ZM32.7955 28.1077C32.7955 30.0281 32.4261 31.656 31.6875 32.9912C30.9489 34.3264 29.9489 35.3406 28.6875 36.0338C27.4318 36.727 26.0227 37.0736 24.4602 37.0736C22.892 37.0736 21.4801 36.7241 20.2244 36.0253C18.9688 35.3264 17.9716 34.3122 17.233 32.9827C16.5 31.6474 16.1335 30.0224 16.1335 28.1077C16.1335 26.1872 16.5 24.5594 17.233 23.2241C17.9716 21.8889 18.9688 20.8747 20.2244 20.1815C21.4801 19.4883 22.892 19.1417 24.4602 19.1417C26.0227 19.1417 27.4318 19.4883 28.6875 20.1815C29.9489 20.8747 30.9489 21.8889 31.6875 23.2241C32.4261 24.5594 32.7955 26.1872 32.7955 28.1077ZM28.483 28.1077C28.483 26.9713 28.321 26.0111 27.9972 25.227C27.679 24.4429 27.2188 23.8491 26.6165 23.4457C26.0199 23.0423 25.3011 22.8406 24.4602 22.8406C23.625 22.8406 22.9063 23.0423 22.304 23.4457C21.7017 23.8491 21.2386 24.4429 20.9148 25.227C20.5966 26.0111 20.4375 26.9713 20.4375 28.1077C20.4375 29.244 20.5966 30.2042 20.9148 30.9883C21.2386 31.7724 21.7017 32.3662 22.304 32.7696C22.9063 33.173 23.625 33.3747 24.4602 33.3747C25.3011 33.3747 26.0199 33.173 26.6165 32.7696C27.2188 32.3662 27.679 31.7724 27.9972 30.9883C28.321 30.2042 28.483 29.244 28.483 28.1077Z" fill="#EA2222"/>
</svg>